HIERARCHY
ROOT Hips
{
	OFFSET 0.000000 0.000000 0.000000
	CHANNELS 6 Xposition Yposition Zposition Xrotation Yrotation Zrotation
	JOINT Spine
	{
		OFFSET 0.000000 -0.744707 -0.000000
		CHANNELS 6 Xposition Yposition Zposition Xrotation Yrotation Zrotation
		JOINT Spine1
		{
			OFFSET 0.000000 -2.032240 -0.000000
			CHANNELS 6 Xposition Yposition Zposition Xrotation Yrotation Zrotation
			JOINT Neck
			{
				OFFSET 0.000000 -2.213880 -0.000000
				CHANNELS 6 Xposition Yposition Zposition Xrotation Yrotation Zrotation
				JOINT Head
				{
					OFFSET 0.000000 -1.407680 -0.181636
					CHANNELS 6 Xposition Yposition Zposition Xrotation Yrotation Zrotation
					End Site
					{
						OFFSET 0.000000 -1.816356 -0.000000
					}
				}
			}
			JOINT LeftShoulder
			{
				OFFSET 0.365767 -1.787590 0.048012
				CHANNELS 6 Xposition Yposition Zposition Xrotation Yrotation Zrotation
				JOINT LeftArm
				{
					OFFSET 1.305160 0.000000 0.000000
					CHANNELS 6 Xposition Yposition Zposition Xrotation Yrotation Zrotation
					JOINT LeftForeArm
					{
						OFFSET 2.559210 0.000000 0.000000
						CHANNELS 6 Xposition Yposition Zposition Xrotation Yrotation Zrotation
						JOINT LeftHand
						{
							OFFSET 2.378450 0.000000 0.000000
							CHANNELS 6 Xposition Yposition Zposition Xrotation Yrotation Zrotation
							End Site
							{
								OFFSET 1.362267 0.000000 0.000000
							}
						}
					}
				}
			}
			JOINT RightShoulder
			{
				OFFSET -0.360721 -1.787590 0.048012
				CHANNELS 6 Xposition Yposition Zposition Xrotation Yrotation Zrotation
				JOINT RightArm
				{
					OFFSET -1.305160 0.000000 0.000000
					CHANNELS 6 Xposition Yposition Zposition Xrotation Yrotation Zrotation
					JOINT RightForeArm
					{
						OFFSET -2.559210 0.000000 0.000000
						CHANNELS 6 Xposition Yposition Zposition Xrotation Yrotation Zrotation
						JOINT RightHand
						{
							OFFSET -2.378450 0.000000 0.000000
							CHANNELS 6 Xposition Yposition Zposition Xrotation Yrotation Zrotation
							End Site
							{
								OFFSET -1.362267 0.000000 0.000000
							}
						}
					}
				}
			}
		}
	}
	JOINT LeftUpLeg
	{
		OFFSET 0.908180 0.000000 0.000000
		CHANNELS 6 Xposition Yposition Zposition Xrotation Yrotation Zrotation
		JOINT LeftLeg
		{
			OFFSET 0.000000 3.819490 0.000002
			CHANNELS 6 Xposition Yposition Zposition Xrotation Yrotation Zrotation
			JOINT LeftFoot
			{
				OFFSET 0.000000 4.004300 0.000002
				CHANNELS 6 Xposition Yposition Zposition Xrotation Yrotation Zrotation
				JOINT LeftToeBase
				{
					OFFSET 0.000000 0.590317 -1.362270
					CHANNELS 6 Xposition Yposition Zposition Xrotation Yrotation Zrotation
					End Site
					{
						OFFSET 0.000000 0.000000 -0.363271
					}
				}
			}
		}
	}
	JOINT RightUpLeg
	{
		OFFSET -0.908180 0.000000 0.000000
		CHANNELS 6 Xposition Yposition Zposition Xrotation Yrotation Zrotation
		JOINT RightLeg
		{
			OFFSET 0.000000 3.819490 0.000002
			CHANNELS 6 Xposition Yposition Zposition Xrotation Yrotation Zrotation
			JOINT RightFoot
			{
				OFFSET 0.000000 4.004300 0.000002
				CHANNELS 6 Xposition Yposition Zposition Xrotation Yrotation Zrotation
				JOINT RightToeBase
				{
					OFFSET 0.000000 0.590317 -1.362270
					CHANNELS 6 Xposition Yposition Zposition Xrotation Yrotation Zrotation
					End Site
					{
						OFFSET 0.000000 0.000000 -0.363271
					}
				}
			}
		}
	}
}
MOTION
Frames: 4
Frame Time: 0.016667
-1.172897 -7.610187 -1.838406 9.134111 0.186415 -1.334764 -0.000000 -0.744707 0.000000 -17.844911 2.124760 4.527485 0.000000 -2.032241 -0.000002 6.048468 0.303820 -12.253142 -0.000000 -2.213882 -0.000001 12.457928 -3.367800 -0.772484 -0.000000 -1.407679 -0.181636 1.756025 -4.346613 7.523289 0.365767 -1.787590 0.048012 -8.581693 0.328105 -21.121047 1.305162 -0.000003 -0.000000 -10.144979 12.278164 3.786522 2.559211 0.000000 0.000000 -5.863772 -0.663417 2.160492 2.378450 0.000000 -0.000001 -5.147544 -19.864494 4.157721 -0.360721 -1.787590 0.048012 -0.547122 5.559662 16.895214 -1.305160 -0.000002 0.000000 37.595024 -26.526138 0.085265 -2.559210 0.000001 -0.000001 61.848299 -60.249775 93.224897 -2.378451 -0.000000 0.000000 -5.981521 10.566265 48.354905 0.908180 0.000000 0.000000 -21.657125 -9.856912 -17.367146 0.000000 3.819491 0.000002 22.775559 -3.696848 1.949947 -0.000000 4.004301 0.000002 0.886694 -18.045056 9.046005 -0.000000 0.590317 -1.362270 -0.000001 0.000001 -0.000002 -0.908180 0.000000 0.000000 -22.640467 -3.317248 21.082832 0.000001 3.819490 0.000002 27.250413 -19.229185 -10.966355 -0.000000 4.004300 0.000002 -10.603937 49.115282 -6.875399 -0.000000 0.590316 -1.362270 0.000001 0.000002 0.000003 
-1.173770 -7.610147 -1.838429 9.133575 0.194796 -1.327316 -0.000000 -0.744705 0.000000 -17.852151 2.120182 4.520711 0.000000 -2.032238 -0.000001 6.053113 0.301472 -12.256237 -0.000000 -2.213880 -0.000000 12.473230 -3.421575 -0.787656 0.000000 -1.407683 -0.181637 1.707175 -4.406400 7.531060 0.365767 -1.787588 0.048011 -8.586635 0.334942 -21.110351 1.305162 0.000000 -0.000000 -10.151095 12.272577 3.782319 2.559211 -0.000000 0.000001 -5.868101 -0.669892 2.174241 2.378451 0.000001 -0.000000 -5.161048 -19.873205 4.104638 -0.360721 -1.787588 0.048011 -0.547207 5.551896 16.900186 -1.305161 0.000002 -0.000000 37.665266 -26.502136 0.105205 -2.559211 0.000000 -0.000002 61.810015 -60.223793 93.263884 -2.378449 0.000001 -0.000000 -6.004280 10.513666 48.356069 0.908180 0.000001 0.000000 -21.644007 -9.834847 -17.376141 0.000000 3.819489 0.000002 22.767476 -3.719710 1.952683 0.000000 4.004301 0.000000 0.898851 -18.052263 9.094865 -0.000000 0.590317 -1.362270 -0.000002 -0.000002 0.000002 -0.908180 0.000001 0.000000 -22.641742 -3.307921 21.066703 0.000001 3.819491 0.000002 27.248029 -19.212738 -10.960834 -0.000000 4.004300 0.000001 -10.610331 49.091209 -6.863199 -0.000000 0.590316 -1.362270 0.000002 -0.000002 -0.000000 
-1.174628 -7.609983 -1.838607 9.126450 0.194816 -1.327101 0.000000 -0.744707 0.000000 -17.847803 2.120104 4.522485 -0.000000 -2.032241 -0.000000 6.049698 0.301709 -12.259241 -0.000000 -2.213879 -0.000000 12.469333 -3.482564 -0.796193 0.000000 -1.407683 -0.181637 1.688200 -4.469101 7.516726 0.365767 -1.787590 0.048012 -8.592767 0.338524 -21.095470 1.305162 -0.000003 -0.000000 -10.121564 12.270250 3.769808 2.559211 -0.000003 0.000001 -5.875641 -0.670599 2.180771 2.378449 0.000001 0.000000 -5.169026 -19.878536 4.101345 -0.360722 -1.787589 0.048012 -0.536461 5.561314 16.904343 -1.305161 -0.000002 -0.000000 37.666472 -26.494285 0.119276 -2.559209 0.000001 -0.000001 61.823703 -60.230350 93.291471 -2.378449 0.000000 -0.000000 -6.035512 10.540765 48.367933 0.908180 0.000000 0.000000 -21.627801 -9.814352 -17.376247 0.000000 3.819490 0.000002 22.759136 -3.704517 1.951062 0.000000 4.004299 0.000001 0.897561 -18.082501 9.057589 0.000000 0.590317 -1.362270 -0.000002 0.000003 -0.000000 -0.908180 0.000000 0.000000 -22.643539 -3.284305 21.063042 0.000000 3.819490 0.000002 27.252911 -19.253212 -10.952176 -0.000000 4.004299 0.000001 -10.641955 49.096660 -6.814178 -0.000000 0.590317 -1.362270 -0.000000 0.000008 0.000001 
-1.175332 -7.609899 -1.838417 9.126125 0.205618 -1.318130 0.000000 -0.744708 -0.000000 -17.851480 2.115501 4.509062 0.000000 -2.032239 -0.000000 6.054014 0.299187 -12.258451 -0.000000 -2.213878 0.000000 12.469303 -3.535530 -0.803520 -0.000000 -1.407678 -0.181636 1.661026 -4.524595 7.507511 0.365767 -1.787590 0.048012 -8.600297 0.333676 -21.099211 1.305159 0.000002 0.000000 -10.095757 12.271074 3.783406 2.559212 -0.000001 0.000000 -5.885425 -0.666140 2.175637 2.378449 0.000001 -0.000000 -5.177709 -19.890597 4.104395 -0.360721 -1.787588 0.048012 -0.541716 5.555430 16.919309 -1.305160 0.000001 -0.000001 37.645137 -26.485703 0.101615 -2.559209 -0.000001 0.000000 61.859029 -60.239454 93.309577 -2.378449 0.000002 -0.000001 -6.035456 10.560714 48.373510 0.908180 -0.000000 0.000000 -21.610220 -9.776440 -17.381163 -0.000000 3.819490 0.000001 22.747146 -3.745919 1.952446 -0.000000 4.004301 0.000001 0.898430 -18.087213 9.063086 0.000000 0.590317 -1.362270 -0.000001 -0.000001 -0.000001 -0.908180 -0.000001 -0.000000 -22.658656 -3.287000 21.046376 0.000001 3.819491 0.000001 27.268642 -19.282946 -10.954428 -0.000000 4.004300 0.000001 -10.642017 49.119558 -6.822370 0.000001 0.590317 -1.362269 -0.000000 0.000003 -0.000002 
